<svg width="419" height="185" viewBox="0 0 419 185" fill="none" xmlns="http://www.w3.org/2000/svg">
<g clip-path="url(#clip0_501_79)">
<path d="M276.406 64.3652C277.052 64.0644 277.748 63.9142 278.451 63.9246C279.154 63.935 279.847 64.1057 280.484 64.4255C281.122 64.7453 281.69 65.2071 282.151 65.7805C282.611 66.3539 282.955 67.026 283.159 67.7528C283.222 67.9832 283.27 68.2182 283.304 68.4559L303.228 79.1303L307.839 75.829L313.576 82.9648L306.536 89.1426C305.689 89.8797 304.645 90.3023 303.558 90.3475C302.472 90.3928 301.401 90.0584 300.504 89.3939L280.289 74.2906C280.139 74.3595 279.985 74.42 279.829 74.4719C279.156 74.6918 278.448 74.7555 277.75 74.6591C277.053 74.5626 276.383 74.308 275.783 73.912C275.183 73.516 274.667 72.9876 274.27 72.3613C273.872 71.735 273.601 71.025 273.475 70.2778C273.438 70.061 273.414 69.8418 273.402 69.6216C273.346 68.5188 273.604 67.4239 274.141 66.4842C274.678 65.5444 275.468 64.805 276.406 64.3652Z" fill="#FFB8B8"/>
<path d="M29.3824 97.5097C29.3824 98.3542 29.693 99.1642 30.2458 99.7614C30.7985 100.359 31.5482 100.694 32.33 100.694H37.1407L37.9982 102.373V176.877C37.9982 177.721 38.3088 178.531 38.8616 179.128C39.4143 179.726 40.164 180.061 40.9458 180.061C41.7275 180.061 42.4772 179.726 43.03 179.128C43.5827 178.531 43.8933 177.721 43.8933 176.877V100.694H205.281L205.326 176.877C205.326 177.721 205.637 178.531 206.189 179.128C206.742 179.726 207.492 180.061 208.274 180.061C209.055 180.061 209.805 179.726 210.358 179.128C210.911 178.531 211.221 177.721 211.221 176.877V100.694H216.436C217.218 100.694 217.967 100.359 218.52 99.7614C219.073 99.1642 219.384 98.3542 219.384 97.5097C219.384 96.6651 219.073 95.8551 218.52 95.2579C217.967 94.6607 217.218 94.3252 216.436 94.3252H32.33C31.9429 94.3252 31.5596 94.4076 31.202 94.5676C30.8444 94.7276 30.5195 94.9622 30.2458 95.2579C29.9721 95.5536 29.7549 95.9047 29.6068 96.291C29.4587 96.6774 29.3824 97.0915 29.3824 97.5097Z" fill="#E5E5E5"/>
<path d="M96.9037 142.534V130.776C96.9036 130.256 96.7125 129.758 96.3724 129.39C96.0322 129.023 95.5709 128.816 95.0898 128.816H53.8247C53.3436 128.816 52.8822 129.023 52.5421 129.39C52.2019 129.758 52.0108 130.256 52.0108 130.776V142.534H96.9037Z" fill="#E5E5E5"/>
<path d="M96.9037 146.943H52.0108V162.131H96.9037V146.943Z" fill="#E5E5E5"/>
<path d="M52.0108 166.54V178.298C52.0108 178.818 52.2019 179.317 52.5421 179.684C52.8822 180.052 53.3436 180.258 53.8247 180.258H95.0898C95.5709 180.258 96.0322 180.052 96.3724 179.684C96.7125 179.317 96.9036 178.818 96.9037 178.298V166.54H52.0108Z" fill="#E5E5E5"/>
<path d="M74.684 137.635C75.4353 137.635 76.0444 136.977 76.0444 136.165C76.0444 135.354 75.4353 134.696 74.684 134.696C73.9326 134.696 73.3236 135.354 73.3236 136.165C73.3236 136.977 73.9326 137.635 74.684 137.635Z" fill="white"/>
<path d="M74.684 157.232C75.4353 157.232 76.0444 156.574 76.0444 155.762C76.0444 154.95 75.4353 154.292 74.684 154.292C73.9326 154.292 73.3236 154.95 73.3236 155.762C73.3236 156.574 73.9326 157.232 74.684 157.232Z" fill="white"/>
<path d="M74.6111 176.414C75.3624 176.414 75.9715 175.756 75.9715 174.944C75.9715 174.132 75.3624 173.474 74.6111 173.474C73.8597 173.474 73.2507 174.132 73.2507 174.944C73.2507 175.756 73.8597 176.414 74.6111 176.414Z" fill="white"/>
<path d="M43.5325 90.1777V94.0676C43.5463 94.2796 43.6369 94.4771 43.7846 94.6174C43.9323 94.7577 44.1253 94.8295 44.3216 94.8172H58.5694C58.7046 94.8173 58.838 94.7838 58.9593 94.7192L62.5553 92.7743C62.6737 92.7199 62.7746 92.6292 62.8456 92.5133C62.9165 92.3974 62.9543 92.2616 62.9543 92.1227C62.9543 91.9837 62.9165 91.8479 62.8456 91.732C62.7746 91.6162 62.6737 91.5254 62.5553 91.4711L58.9593 89.5261C58.838 89.4615 58.7046 89.428 58.5694 89.4281H44.3216C44.1253 89.4158 43.9323 89.4876 43.7846 89.6279C43.6369 89.7682 43.5463 89.9657 43.5325 90.1777Z" fill="#3F3D56"/>
<path d="M44.3216 89.4281H47.1602V94.8172H44.3216C44.1253 94.8295 43.9323 94.7577 43.7846 94.6174C43.6369 94.4771 43.5463 94.2796 43.5325 94.0676V90.1777C43.5463 89.9658 43.6369 89.7682 43.7846 89.6279C43.9323 89.4876 44.1253 89.4158 44.3216 89.4281Z" fill="#0027E1"/>
<path d="M386.099 137.547C384.281 138.238 382.329 138.411 380.431 138.049C378.533 137.688 376.753 136.805 375.263 135.485C371.468 132.044 370.278 126.374 369.31 121.124C368.355 115.948 367.401 110.772 366.446 105.595L372.442 110.056C376.753 113.263 381.162 116.573 384.147 121.219C387.133 125.865 388.436 132.207 386.037 137.234" fill="#E6E6E6"/>
<path d="M385.586 156.348C386.193 151.572 386.817 146.735 386.391 141.909C386.013 137.622 384.803 133.435 382.339 130.003C381.03 128.184 379.439 126.626 377.635 125.398C377.165 125.077 376.732 125.882 377.2 126.202C380.321 128.333 382.735 131.479 384.094 135.188C385.595 139.313 385.836 143.808 385.577 148.19C385.421 150.839 385.089 153.471 384.755 156.1C384.729 156.219 384.745 156.344 384.801 156.45C384.857 156.557 384.948 156.636 385.056 156.673C385.166 156.705 385.284 156.689 385.383 156.628C385.482 156.567 385.555 156.466 385.586 156.348Z" fill="#F2F2F2"/>
<path d="M379.741 147.897C378.962 149.178 377.89 150.219 376.629 150.922C375.369 151.625 373.962 151.966 372.544 151.91C368.901 151.724 365.864 148.976 363.13 146.368L355.043 138.654L360.395 138.377C364.244 138.178 368.192 137.993 371.858 139.275C375.525 140.557 378.906 143.644 379.576 147.743" fill="#E6E6E6"/>
<path d="M387.301 159.093C384.38 153.509 380.993 147.304 374.939 145.32C373.256 144.771 371.491 144.574 369.74 144.74C369.188 144.792 369.325 145.711 369.877 145.66C372.813 145.397 375.743 146.234 378.174 148.032C380.514 149.752 382.336 152.144 383.877 154.681C384.822 156.235 385.668 157.854 386.514 159.472C386.784 159.989 387.575 159.616 387.301 159.093Z" fill="#F2F2F2"/>
<path d="M391.981 164.97C391.882 163.738 391.473 162.559 390.797 161.561C390.121 160.563 389.205 159.784 388.148 159.31V156.082H383.137V159.412C382.132 159.909 381.267 160.686 380.631 161.662C379.994 162.638 379.608 163.78 379.513 164.97L378.335 179.768H393.159L391.981 164.97Z" fill="#F2F2F2"/>
<path d="M0 180.29C0 180.16 0.0477751 180.036 0.132816 179.944C0.217857 179.852 0.333197 179.8 0.453463 179.8L418.711 179.978C418.962 179.978 419 180.02 419 180.29C419 180.42 418.952 180.545 418.867 180.637C418.782 180.729 418.667 180.78 418.547 180.78H0.453463C0.333197 180.78 0.217857 180.729 0.132816 180.637C0.0477751 180.545 0 180.42 0 180.29Z" fill="#CCCCCC"/>
<path d="M108.505 93.7988L109.994 93.1217L111.015 85.0596H124.614L125.72 93.0887L127.052 93.8081C127.116 93.8426 127.167 93.8992 127.197 93.9689C127.227 94.0386 127.235 94.1173 127.219 94.1922C127.202 94.2671 127.163 94.3339 127.107 94.3816C127.051 94.4294 126.982 94.4554 126.911 94.4554H108.628C108.555 94.4554 108.484 94.4281 108.428 94.3781C108.371 94.3282 108.333 94.2587 108.318 94.1813C108.304 94.104 108.315 94.0237 108.349 93.954C108.383 93.8843 108.438 93.8294 108.505 93.7988Z" fill="#E6E6E6"/>
<path d="M83.0197 84.7025V74.5256H152.46V84.7025C152.46 85.0811 152.321 85.4443 152.073 85.7124C151.826 85.9804 151.49 86.1314 151.139 86.1323H84.3402C83.9897 86.1314 83.6538 85.9804 83.4063 85.7124C83.1587 85.4443 83.0197 85.0811 83.0197 84.7025Z" fill="#CCCCCC"/>
<path d="M82.9499 35.7907C82.9504 35.3338 83.1186 34.8957 83.4177 34.5725C83.7168 34.2494 84.1223 34.0676 84.5453 34.0671H150.925C151.348 34.0676 151.754 34.2494 152.053 34.5725C152.352 34.8957 152.52 35.3338 152.521 35.7907V79.3353H82.9499V35.7907Z" fill="#3F3D56"/>
<path d="M85.8751 74.846V38.5564C85.8755 38.2041 86.0052 37.8663 86.2358 37.6172C86.4663 37.3681 86.779 37.2279 87.1051 37.2275H148.366C148.692 37.2279 149.004 37.3681 149.235 37.6172C149.465 37.8663 149.595 38.2041 149.595 38.5564V74.8461C149.595 75.1984 149.465 75.5361 149.235 75.7852C149.004 76.0343 148.692 76.1744 148.366 76.1748H87.1051C86.779 76.1744 86.4664 76.0343 86.2358 75.7852C86.0052 75.5361 85.8755 75.1983 85.8751 74.846Z" fill="white"/>
<path d="M214.987 0H276.381V79.2003H214.987V0Z" fill="white"/>
<path d="M214.987 0H276.381V79.2003H214.987V0ZM275.298 1.17017H216.07V78.0301H275.298V1.17017Z" fill="#E5E5E5"/>
<path d="M267.157 38.3533H224.211V40.1463H267.157V38.3533Z" fill="#F1F1F1"/>
<path d="M262.539 27.6344H263.007V9.49414H246.509V10.0002H262.539V27.6344Z" fill="#CBCBCB"/>
<path d="M229.543 29.2987H246.041V28.7931H230.011V11.1589H229.543V29.2987Z" fill="#CBCBCB"/>
<path d="M267.157 43.0281H224.211V44.8211H267.157V43.0281Z" fill="#F1F1F1"/>
<path d="M267.157 47.7031H224.211V49.4962H267.157V47.7031Z" fill="#F1F1F1"/>
<path d="M267.157 55.9312H224.211V57.7242H267.157V55.9312Z" fill="#F1F1F1"/>
<path d="M267.157 60.6062H224.211V62.3992H267.157V60.6062Z" fill="#F1F1F1"/>
<path d="M267.157 65.2812H224.211V67.0743H267.157V65.2812Z" fill="#F1F1F1"/>
<path d="M242.424 14.4212L242.857 13.8487L242.205 13.0464L241.623 13.4363C241.287 13.152 240.902 12.9422 240.491 12.8191L240.416 12.0143L239.429 11.9453L239.263 12.711C238.799 12.7648 238.351 12.9264 237.95 13.1847L237.46 12.7523L236.717 13.4571L237.051 14.0378C236.762 14.4343 236.556 14.8935 236.447 15.3841L235.723 15.463L235.659 16.5286L236.388 16.7129C236.448 17.1727 236.592 17.615 236.813 18.014L236.412 18.5433L237.065 19.3457L237.602 18.9851C237.948 19.2794 238.346 19.4946 238.771 19.6173L238.849 20.453L239.836 20.522L240.011 19.7115C240.458 19.6532 240.888 19.4951 241.275 19.2474L241.805 19.715L242.548 19.0103L242.187 18.3822C242.464 17.9996 242.665 17.5588 242.776 17.0879L243.542 17.0044L243.606 15.9387L242.849 15.7474C242.792 15.2789 242.647 14.8278 242.424 14.4212ZM241.391 18.3558C240.999 18.7276 240.514 18.9655 239.997 19.0395C239.48 19.1134 238.955 19.0202 238.487 18.7714C238.019 18.5227 237.63 18.1297 237.369 17.6421C237.108 17.1545 236.987 16.5942 237.02 16.0321C237.054 15.47 237.241 14.9313 237.558 14.4841C237.875 14.0369 238.308 13.7014 238.802 13.5199C239.295 13.3384 239.827 13.3191 240.331 13.4645C240.835 13.6098 241.287 13.9133 241.632 14.3365C242.093 14.904 242.327 15.6463 242.282 16.4001C242.236 17.1538 241.916 17.8573 241.391 18.3558Z" fill="#0027E1"/>
<path d="M248.342 22.1695L248.939 21.8087L248.605 20.8037L247.932 20.9357C247.716 20.5378 247.429 20.1899 247.088 19.9121L247.292 19.1337L246.398 18.6782L245.984 19.3245C245.534 19.1904 245.062 19.1628 244.601 19.2438L244.292 18.6472L243.362 19.008L243.475 19.6806C243.071 19.9348 242.724 20.2801 242.455 20.693L241.755 20.479L241.333 21.4448L241.949 21.9055C241.848 22.3572 241.832 22.8259 241.901 23.2843L241.349 23.6178L241.683 24.6229L242.306 24.5009C242.527 24.9119 242.824 25.2699 243.178 25.5529L242.967 26.3611L243.861 26.8167L244.299 26.1325C244.734 26.2555 245.189 26.2792 245.633 26.2023L245.967 26.8477L246.897 26.4869L246.775 25.7594C247.163 25.5136 247.499 25.1832 247.763 24.7893L248.504 25.0159L248.926 24.05L248.287 23.5717C248.392 23.1131 248.411 22.6362 248.342 22.1695ZM246.043 25.419C245.553 25.6093 245.021 25.6381 244.515 25.5018C244.009 25.3655 243.552 25.0702 243.201 24.6532C242.851 24.2362 242.622 23.7163 242.545 23.1592C242.468 22.6021 242.546 22.0328 242.768 21.5234C242.991 21.0139 243.348 20.5872 243.795 20.2971C244.242 20.007 244.758 19.8666 245.279 19.8936C245.8 19.9207 246.302 20.114 246.721 20.4491C247.14 20.7842 247.458 21.246 247.634 21.7762C247.87 22.4871 247.835 23.2703 247.537 23.9535C247.239 24.6366 246.701 25.1638 246.043 25.419Z" fill="#6C63FF"/>
<path d="M255.654 17.559L256.065 16.9682L255.384 16.1947L254.817 16.6094C254.471 16.3398 254.078 16.1469 253.663 16.0416L253.558 15.2407L252.57 15.2144L252.433 15.9866C251.971 16.0604 251.529 16.2413 251.137 16.5166L250.632 16.1057L249.916 16.842L250.271 17.4078C249.997 17.8165 249.808 18.2843 249.717 18.7792L248.996 18.8892L248.972 19.9568L249.707 20.1094C249.784 20.5663 249.945 21.002 250.18 21.3911L249.799 21.9374L250.481 22.7109L251.005 22.3274C251.361 22.6066 251.767 22.8043 252.196 22.9086L252.305 23.7403L253.293 23.7667L253.439 22.9492C253.883 22.8717 254.307 22.6951 254.684 22.4309L255.231 22.8753L255.947 22.1391L255.563 21.527C255.826 21.1327 256.01 20.6836 256.104 20.2083L256.867 20.0918L256.891 19.0242L256.128 18.8657C256.053 18.4001 255.892 17.9556 255.654 17.559ZM254.767 21.5351C254.389 21.9235 253.913 22.1821 253.4 22.2783C252.886 22.3746 252.357 22.3041 251.881 22.0757C251.404 21.8474 251.001 21.4715 250.722 20.9955C250.443 20.5196 250.301 19.965 250.314 19.4019C250.327 18.8388 250.494 18.2924 250.794 17.8319C251.095 17.3714 251.515 17.0175 252.001 16.8148C252.487 16.6121 253.019 16.5699 253.527 16.6934C254.036 16.8169 254.499 17.1006 254.859 17.5086C255.341 18.0557 255.602 18.7873 255.585 19.5424C255.567 20.2975 255.273 21.0143 254.767 21.5351Z" fill="#0027E1"/>
<path d="M125.753 59.8594L127.512 59.7084L127.731 56.9645L126.021 56.4912C125.911 55.3075 125.586 54.1589 125.063 53.1115L126.316 51.5243L124.675 49.4173L123.06 50.4502C122.138 49.6123 121.06 48.9994 119.899 48.6533L119.77 46.8961L117.23 46.6602L116.825 48.3676C115.627 48.4944 114.467 48.8994 113.427 49.555L111.999 48.2392L110.049 50.0124L111.032 51.8075C110.347 52.7495 109.843 53.8293 109.548 54.984L107.922 55.1236L107.704 57.8673L109.284 58.3051C109.394 59.5262 109.733 60.7102 110.281 61.7849L108.98 63.4331L110.621 65.5401L112.331 64.4468C113.229 65.2408 114.269 65.8244 115.386 66.1606L115.526 68.0612L118.066 68.2972L118.504 66.4504C119.658 66.3253 120.776 65.9422 121.786 65.3255L123.297 66.7181L125.248 64.945L124.226 63.081C124.931 62.1293 125.45 61.0335 125.753 59.8594ZM117.129 64.8021C115.789 64.6776 114.514 64.1268 113.464 63.2192C112.414 62.3116 111.637 61.0881 111.231 59.7033C110.825 58.3186 110.808 56.8348 111.182 55.4396C111.557 54.0444 112.306 52.8005 113.334 51.8651C114.363 50.9298 115.625 50.345 116.962 50.1848C118.298 50.0245 119.648 50.296 120.842 50.9649C122.035 51.6337 123.018 52.67 123.667 53.9425C124.315 55.215 124.6 56.6667 124.485 58.114C124.33 60.0547 123.468 61.8497 122.089 63.1039C120.709 64.3582 118.925 64.9691 117.129 64.8021Z" fill="#0027E1"/>
<path d="M317.905 130.087H296.134C296.134 130.763 273.697 131.312 273.697 131.312C273.344 131.599 273.024 131.927 272.74 132.292C271.888 133.39 271.422 134.778 271.425 136.211V137.191C271.425 138.815 272.023 140.373 273.086 141.521C274.148 142.669 275.59 143.315 277.093 143.315H317.905C319.408 143.314 320.849 142.668 321.911 141.52C322.974 140.372 323.572 138.815 323.573 137.191V136.211C323.571 134.588 322.973 133.032 321.91 131.884C320.848 130.736 319.407 130.09 317.905 130.087Z" fill="#3F3D56"/>
<path d="M300.118 143.072H294.223V184.225H300.118V143.072Z" fill="#3F3D56"/>
<path d="M277.445 184.001C277.445 184.69 286.378 184.268 297.397 184.268C308.417 184.268 317.35 184.69 317.35 184.001C317.35 183.313 308.417 177.856 297.397 177.856C286.378 177.856 277.445 183.313 277.445 184.001Z" fill="#3F3D56"/>
<path d="M282.766 179.178L277.207 179.178L274.562 163.6L282.767 163.6L282.766 179.178Z" fill="#FFB8B8"/>
<path d="M284.185 185L266.259 184.999V184.754C266.259 183.764 266.439 182.784 266.79 181.87C267.141 180.955 267.655 180.124 268.302 179.424C268.95 178.724 269.719 178.169 270.566 177.79C271.412 177.411 272.32 177.216 273.236 177.216H273.237L284.185 177.217L284.185 185Z" fill="#2F2E41"/>
<path d="M274.452 169.518L263.369 142.666C262.443 140.403 262.341 137.847 263.082 135.506C263.823 133.165 265.353 131.211 267.368 130.034L291.407 116.107L302.377 115.099L312.496 114.105L312.569 114.239C312.662 114.409 314.838 118.469 313.367 122.921C312.252 126.298 309.35 128.935 304.743 130.761C293.989 135.021 281.567 138.661 276.725 140.029C276.511 140.088 276.311 140.195 276.138 140.344C275.966 140.493 275.824 140.679 275.722 140.891C275.621 141.101 275.56 141.331 275.545 141.567C275.53 141.803 275.56 142.039 275.633 142.262L285.93 167.255C286.038 167.572 286.076 167.912 286.043 168.247C286.01 168.583 285.906 168.906 285.739 169.191C285.572 169.477 285.347 169.717 285.08 169.894C284.814 170.07 284.514 170.178 284.203 170.209L276.509 170.814C276.444 170.821 276.379 170.824 276.314 170.824C275.92 170.824 275.534 170.701 275.204 170.469C274.873 170.237 274.612 169.907 274.452 169.518Z" fill="#2F2E41"/>
<path d="M286.394 179.178L280.835 179.178L278.19 163.6L286.395 163.6L286.394 179.178Z" fill="#FFB8B8"/>
<path d="M287.812 185L269.887 184.999V184.754C269.887 183.764 270.067 182.784 270.418 181.87C270.768 180.955 271.282 180.124 271.93 179.424C272.578 178.724 273.347 178.169 274.194 177.79C275.04 177.411 275.947 177.216 276.864 177.216H276.864L287.813 177.217L287.812 185Z" fill="#2F2E41"/>
<path d="M278.533 170.988L267.45 144.136C266.525 141.873 266.422 139.316 267.163 136.975C267.904 134.634 269.434 132.681 271.449 131.504L295.488 117.577L306.458 116.569L314.384 115.826L314.383 115.708C314.476 115.879 316.652 119.939 315.181 124.391C314.066 127.768 313.431 130.405 308.824 132.23C298.071 136.49 285.648 140.131 280.806 141.499C280.592 141.558 280.392 141.665 280.22 141.814C280.047 141.962 279.905 142.149 279.804 142.361C279.702 142.57 279.642 142.8 279.626 143.036C279.611 143.272 279.641 143.509 279.715 143.732L290.011 168.725C290.119 169.042 290.157 169.381 290.124 169.717C290.091 170.053 289.987 170.376 289.82 170.661C289.653 170.947 289.428 171.187 289.162 171.363C288.895 171.54 288.595 171.648 288.284 171.679L280.59 172.284C280.525 172.291 280.46 172.294 280.395 172.294C280.001 172.294 279.615 172.171 279.285 171.939C278.955 171.707 278.693 171.376 278.533 170.988Z" fill="#2F2E41"/>
<path d="M299.42 116.316C298.888 115.91 291.257 120.235 289.897 116.806C296.245 99.6585 291.871 92.254 295.759 82.4209C296.444 80.7249 297.476 79.2187 298.777 78.0155C300.078 76.8123 301.615 75.9434 303.272 75.474L313.361 74.9238L313.413 74.9511C315.69 76.1559 317.547 78.1213 318.708 80.5559C319.87 82.9905 320.274 85.7647 319.861 88.4672C319.825 99.1686 313.899 107.33 315.971 115.092C316.058 115.417 316.084 115.757 316.046 116.092C316.008 116.428 315.908 116.751 315.752 117.044C315.6 117.327 315.397 117.573 315.154 117.768C314.911 117.962 314.634 118.101 314.339 118.175L301.017 116.255C300.706 116.335 300.382 116.343 300.068 116.277C299.754 116.211 299.457 116.074 299.196 115.874L299.42 116.316Z" fill="#0027E1"/>
<path d="M309.994 70.8525C316.145 70.8525 321.132 65.4651 321.132 58.8195C321.132 52.1739 316.145 46.7866 309.994 46.7866C303.843 46.7866 298.857 52.1739 298.857 58.8195C298.857 65.4651 303.843 70.8525 309.994 70.8525Z" fill="#FFB8B8"/>
<path d="M288.957 99.5956L269.606 83.102C269.452 83.1606 269.295 83.2105 269.136 83.2517C268.453 83.4243 267.744 83.4398 267.055 83.297C266.367 83.1542 265.713 82.8565 265.138 82.4231C264.559 81.9894 264.072 81.427 263.71 80.7736C263.348 80.1202 263.12 79.3908 263.04 78.6343C262.891 77.2676 263.233 75.8913 263.993 74.7876C264.754 73.6839 265.877 72.9364 267.131 72.6983C268.386 72.4601 269.677 72.7495 270.741 73.507C271.804 74.2645 272.559 75.4327 272.851 76.7723C272.9 77.0065 272.935 77.2442 272.954 77.4837L292.218 89.4903L297.012 86.5085L302.323 94.0199L294.879 99.7516C294.008 100.417 292.961 100.761 291.895 100.733C290.828 100.705 289.798 100.306 288.957 99.5956Z" fill="#FFB8B8"/>
<path d="M304.684 96.3592L293.643 88.2474L298.832 80.3074C299.521 79.2531 300.532 78.4958 301.688 78.1695C302.844 77.8432 304.069 77.9687 305.148 78.5241C306.239 79.0858 307.108 80.0505 307.598 81.2439C308.088 82.4372 308.167 83.7806 307.821 85.0315L304.684 96.3592Z" fill="#0027E1"/>
<path d="M313.542 69.8642C312.95 70.1439 311.738 65.0496 312.281 64.0307C313.088 62.5154 313.04 62.5263 313.576 61.5238C314.112 60.5213 314.232 59.1491 313.538 58.267C312.844 57.3849 311.238 57.5019 310.921 58.6079C311.125 56.5072 309.202 54.8186 307.297 54.344C305.392 53.8695 303.382 54.1641 301.467 53.7419C299.244 53.2518 296.931 51.2385 297.818 48.5974C297.97 48.1576 298.198 47.753 298.489 47.4049C299.514 46.16 300.948 45.6284 302.349 45.1145C305.265 44.0453 308.261 42.9626 311.338 43.0806C313.873 43.2239 316.315 44.1625 318.365 45.7818C320.414 47.401 321.982 49.6306 322.877 52.1977C323.089 52.8399 323.253 53.4993 323.368 54.1697C324.424 60.3056 321.126 66.3579 315.77 68.6945L313.542 69.8642Z" fill="#2F2E41"/>
<path d="M155.365 136.168V137.148C155.366 138.772 155.964 140.328 157.027 141.477C158.089 142.625 159.53 143.27 161.033 143.272H201.845C203.348 143.271 204.79 142.626 205.853 141.477C206.915 140.329 207.513 138.772 207.513 137.148V136.168C207.516 134.735 207.05 133.347 206.198 132.249C205.915 131.884 205.594 131.555 205.241 131.269C205.241 131.269 182.804 130.72 182.804 130.044H161.033C159.531 130.046 158.09 130.692 157.028 131.84C155.965 132.988 155.367 134.544 155.365 136.168Z" fill="#3F3D56"/>
<path d="M184.715 143.029H178.82V184.182H184.715V143.029Z" fill="#3F3D56"/>
<path d="M181.541 177.813C170.521 177.813 161.588 183.27 161.588 183.958C161.588 184.646 170.521 184.224 181.541 184.224C192.56 184.224 201.493 184.646 201.493 183.958C201.493 183.27 192.56 177.813 181.541 177.813Z" fill="#3F3D56"/>
<path d="M201.229 162.744L209.434 162.743L206.789 178.321L201.23 178.322L201.229 162.744Z" fill="#FFB8B8"/>
<path d="M199.812 176.36L210.76 176.36H210.761C211.677 176.36 212.585 176.555 213.431 176.934C214.278 177.312 215.047 177.868 215.695 178.568C216.342 179.268 216.856 180.099 217.207 181.013C217.558 181.928 217.738 182.908 217.738 183.898V184.143L199.812 184.144L199.812 176.36Z" fill="#2F2E41"/>
<path d="M207.683 169.968C207.618 169.968 207.553 169.965 207.488 169.958L199.794 169.353C199.483 169.322 199.183 169.214 198.916 169.037C198.65 168.861 198.425 168.62 198.258 168.335C198.091 168.05 197.987 167.727 197.954 167.391C197.921 167.055 197.959 166.716 198.067 166.399L208.364 141.406C208.437 141.183 208.467 140.946 208.452 140.71C208.437 140.474 208.376 140.244 208.275 140.035C208.173 139.823 208.031 139.636 207.859 139.488C207.686 139.339 207.486 139.232 207.272 139.172C202.43 137.805 190.008 134.164 179.254 129.904C174.647 128.079 171.745 125.441 170.63 122.064C169.159 117.613 171.335 113.553 171.428 113.382L171.501 113.249L181.62 114.242L192.59 115.251L216.629 129.178C218.644 130.355 220.174 132.308 220.915 134.649C221.656 136.99 221.554 139.547 220.628 141.81L209.545 168.661C209.385 169.05 209.124 169.381 208.793 169.612C208.463 169.844 208.077 169.968 207.683 169.968Z" fill="#2F2E41"/>
<path d="M198.508 162.744L206.713 162.743L204.068 178.321L198.509 178.322L198.508 162.744Z" fill="#FFB8B8"/>
<path d="M197.091 176.36L208.04 176.36H208.04C208.957 176.36 209.864 176.555 210.71 176.934C211.557 177.312 212.326 177.868 212.974 178.568C213.622 179.268 214.136 180.099 214.486 181.013C214.837 181.928 215.017 182.908 215.017 183.898V184.143L197.092 184.144L197.091 176.36Z" fill="#2F2E41"/>
<path d="M204.509 171.438C204.444 171.438 204.379 171.434 204.314 171.428L196.62 170.822C196.309 170.791 196.009 170.683 195.742 170.507C195.476 170.33 195.25 170.09 195.084 169.805C194.917 169.519 194.813 169.196 194.78 168.861C194.747 168.525 194.785 168.186 194.893 167.869L205.189 142.875C205.263 142.653 205.293 142.416 205.278 142.18C205.262 141.944 205.202 141.714 205.1 141.504C204.999 141.292 204.857 141.106 204.684 140.957C204.512 140.809 204.312 140.701 204.098 140.642C199.256 139.275 186.833 135.634 176.08 131.374C171.473 129.549 168.571 126.911 167.455 123.534C165.985 119.082 168.16 115.022 168.254 114.852L168.327 114.719L178.446 115.712L189.415 116.72L213.455 130.648C215.469 131.824 216.999 133.778 217.741 136.119C218.482 138.46 218.379 141.017 217.454 143.28L206.371 170.131C206.211 170.52 205.949 170.85 205.619 171.082C205.289 171.314 204.903 171.438 204.509 171.438Z" fill="#2F2E41"/>
<path d="M165.743 76.372C166.493 75.3483 167.557 74.6482 168.743 74.398C169.929 74.1479 171.159 74.3641 172.21 75.0078C173.249 75.6441 174.047 76.6569 174.462 77.8671C174.877 79.0773 174.883 80.4071 174.478 81.6215L171.431 90.7666L158.95 85.6424L165.743 76.372Z" fill="#6C63FF"/>
<path d="M190.696 121.877C190.435 122.076 190.138 122.214 189.824 122.279C189.51 122.345 189.186 122.338 188.875 122.258L169.658 117.319C169.363 117.244 169.086 117.106 168.843 116.911C168.6 116.717 168.397 116.47 168.245 116.187C168.089 115.895 167.989 115.571 167.951 115.236C167.913 114.901 167.939 114.56 168.026 114.236C170.098 106.474 167.381 96.8522 164.136 87.6107C163.723 84.9083 164.127 82.1341 165.289 79.6995C166.45 77.2649 168.307 75.2994 170.584 74.0947L170.636 74.0674L180.725 74.6176C182.382 75.0869 183.919 75.9559 185.22 77.1591C186.521 78.3623 187.553 79.8685 188.238 81.5645C192.126 91.3976 193.24 104.015 191.641 120.138C191.607 120.484 191.505 120.818 191.342 121.117C191.179 121.417 190.959 121.676 190.696 121.877Z" fill="#0027E1"/>
<path d="M184.997 59.8907C185.982 53.3309 181.859 47.1502 175.787 46.0857C169.715 45.0212 163.995 49.476 163.009 56.0358C162.024 62.5956 166.147 68.7763 172.219 69.8408C178.291 70.9053 184.011 66.4505 184.997 59.8907Z" fill="#FFB8B8"/>
<path d="M189.118 98.8951L181.674 93.1634L186.985 85.652L191.779 88.6338L211.043 76.6272C211.062 76.3877 211.097 76.15 211.146 75.9158C211.372 74.8782 211.878 73.9363 212.599 73.2091C213.32 72.4819 214.225 72.0021 215.199 71.8304C216.172 71.6587 217.171 71.8028 218.069 72.2444C218.967 72.6861 219.723 73.4055 220.243 74.3116C220.762 75.2178 221.021 76.27 220.987 77.3352C220.953 78.4004 220.627 79.4308 220.051 80.2961C219.475 81.1613 218.675 81.8226 217.751 82.1962C216.827 82.5699 215.821 82.6391 214.861 82.3952C214.702 82.3541 214.545 82.3041 214.391 82.2455L195.04 98.7391C194.199 99.4497 193.169 99.8486 192.102 99.8767C191.036 99.9048 189.989 99.5606 189.118 98.8951Z" fill="#FFB8B8"/>
<path d="M176.176 84.175C175.83 82.9242 175.909 81.5808 176.399 80.3874C176.889 79.194 177.758 78.2294 178.849 77.6676C179.928 77.1123 181.153 76.9867 182.309 77.313C183.465 77.6394 184.476 78.3966 185.165 79.4509L190.354 87.391L179.313 95.5027L176.176 84.175Z" fill="#0027E1"/>
<path d="M178.114 56.222C178.323 56.622 178.41 57.0833 178.361 57.5398C178.313 57.9964 178.132 58.4246 177.844 58.763C176.262 60.6963 175.84 63.6887 176.41 66.266C177.095 69.3588 178.912 71.9948 180.706 74.5157C182.5 77.0365 184.356 79.6259 185.145 82.6897C187.01 89.9432 181.998 97.6785 175.558 100.552C169.117 103.426 161.783 102.516 155.001 100.784C149.883 99.4774 144.601 97.555 141.101 93.3141C137.601 89.0732 136.672 81.8937 140.392 77.877C143.308 74.7283 147.848 74.4747 151.905 73.6856C155.963 72.8965 160.559 70.5724 161.102 66.1572C161.642 61.7702 157.838 58.1444 157.121 53.787C156.23 48.3685 160.593 43.2051 165.529 41.8462C170.465 40.4873 175.671 41.9969 180.453 43.8943C184.131 45.3539 187.977 47.2581 189.377 51.5834C190.156 53.9886 189.551 56.7294 187.631 58.2095C184.708 60.4636 180.949 58.2878 178.086 56.1711L178.114 56.222Z" fill="#2F2E41"/>
</g>
<defs>
<clipPath id="clip0_501_79">
<rect width="419" height="185" fill="white"/>
</clipPath>
</defs>
</svg>
