<svg width="170" height="204" viewBox="0 0 170 204" fill="none" xmlns="http://www.w3.org/2000/svg">
<g clip-path="url(#clip0_758_4497)">
<path d="M1.2153 97.5704C1.83994 98.6095 2.68571 99.4995 3.69303 100.178C4.70036 100.856 5.84474 101.306 7.04557 101.496C8.24639 101.686 9.47445 101.612 10.6432 101.278C11.8121 100.944 12.8932 100.359 13.8104 99.5641L39.4488 114.211L38.4933 98.9421L14.2931 87.3742C12.8502 85.9278 10.9247 85.0589 8.88152 84.9321C6.83836 84.8054 4.81951 85.4295 3.20749 86.6863C1.59548 87.9432 0.502314 89.7453 0.13514 91.7513C-0.232034 93.7573 0.152295 95.8278 1.2153 97.5704Z" fill="#FFB8B8"/>
<path d="M75.4411 156.245C67.8359 166.848 68.108 184.586 70.2298 204H106.187L107.751 200.366L109.835 204H143.709C143.709 204 141.103 154.688 136.413 153.131C131.723 151.573 75.4411 156.245 75.4411 156.245Z" fill="#2F2E41"/>
<path d="M106.188 45.4703C116.261 45.4703 124.427 37.3364 124.427 27.3027C124.427 17.2689 116.261 9.13501 106.188 9.13501C96.1142 9.13501 87.9481 17.2689 87.9481 27.3027C87.9481 37.3364 96.1142 45.4703 106.188 45.4703Z" fill="#FFB8B8"/>
<path d="M119.37 50.1838L122.937 56.9933L147.607 67.9477L141.123 130.458L138.393 136.931L139.868 142.552L136.313 146.701C139.881 149.917 140.335 153.284 138.393 156.767L127.033 159.359C127.033 159.359 63.864 164.954 69.1876 155.207C75.0044 144.556 76.4856 113.102 63.6445 96.2934C52.7427 82.0235 61.1124 63.5068 61.1124 63.5068L86.9718 55.8091L96.4833 50.1838L119.37 50.1838Z" fill="#0027E1"/>
<path d="M114.285 0.689868C114.371 0.509234 114.509 0.35824 114.681 0.256279C114.854 0.154318 115.053 0.106043 115.253 0.117657C106.903 -0.379872 98.1072 0.589555 91.1213 5.17305C89.4288 6.28349 87.8332 7.60798 85.9915 8.41351C85.9046 8.45242 85.8292 8.51305 85.7728 8.58953C85.7163 8.66601 85.6807 8.75572 85.6694 8.84997C85.658 8.94421 85.6713 9.03978 85.708 9.12739C85.7447 9.215 85.8034 9.29167 85.8787 9.34996L86.0809 9.50797C86.1607 9.57031 86.2219 9.65325 86.2576 9.74778C86.2934 9.8423 86.3025 9.94479 86.2839 10.0441C86.2653 10.1434 86.2197 10.2357 86.152 10.311C86.0844 10.3863 85.9974 10.4417 85.9004 10.4712C85.7993 10.5019 85.709 10.5607 85.6404 10.6408C85.5717 10.7209 85.5274 10.8188 85.5128 10.9231C85.4981 11.0274 85.5137 11.1337 85.5577 11.2295C85.6017 11.3252 85.6722 11.4065 85.761 11.4636L87.3112 12.4616C87.3893 12.511 87.4536 12.5791 87.4984 12.6597C87.5432 12.7403 87.5669 12.8308 87.5674 12.9229C87.5679 13.015 87.5452 13.1058 87.5013 13.1869C87.4574 13.268 87.3938 13.3368 87.3163 13.387C87.185 13.4678 87.0471 13.5374 86.9041 13.5952C86.8151 13.6285 86.7362 13.6841 86.675 13.7565C86.6139 13.829 86.5725 13.916 86.5548 14.009C86.5372 14.1021 86.544 14.1981 86.5744 14.2878C86.6049 14.3775 86.658 14.4579 86.7287 14.5212C87.4 15.1164 87.9149 15.8662 88.2285 16.7051C88.7452 18.0432 88.838 19.5006 88.9253 20.9317C89.4593 18.8668 91.7216 17.6513 93.8587 17.5278C95.9958 17.4043 98.08 18.1067 100.16 18.6116C104.69 19.708 109.394 19.8883 113.995 19.1417C112.433 22.2648 113.751 25.99 115.077 29.2197L119.37 27.3869C125.266 24.0719 121.159 38.0949 118.955 40.02C123.456 41.5742 135.235 24.3245 131.446 17.7813C129.475 14.3776 130.874 9.98767 126.998 6.75952C125.099 4.76785 121.307 5.65308 119.37 3.99776C118.608 3.34625 119.77 1.60324 118.722 1.22338C118.374 1.09721 114.343 0.562708 114.285 0.689868Z" fill="#2F2E41"/>
<path d="M83.3901 57.5676C80.0432 72.3679 71.4591 106.925 62.7502 114.152C62.1979 114.671 61.5356 115.061 60.8122 115.291C30.2001 122.72 20.3914 103.772 20.3914 103.772C20.3914 103.772 28.595 99.7895 28.8031 92.0059L45.3471 97.119L59.7689 64.7916L61.8912 62.8198L61.903 62.808L83.3901 57.5676Z" fill="#3F3D56"/>
<path d="M148.66 194.241C149.537 193.402 150.218 192.381 150.656 191.251C151.093 190.121 151.277 188.91 151.194 187.701C151.11 186.493 150.762 185.318 150.174 184.258C149.585 183.198 148.77 182.28 147.787 181.568L156.368 153.396L141.644 157.748L135.752 183.833C134.66 185.558 134.242 187.621 134.576 189.633C134.91 191.645 135.974 193.465 137.565 194.748C139.156 196.031 141.164 196.688 143.209 196.594C145.254 196.501 147.193 195.664 148.66 194.241Z" fill="#FFB8B8"/>
<path d="M140.806 66.3718L147.607 67.9478C147.607 67.9478 175.721 122.432 168.946 132.814C162.172 143.195 153.872 177.566 153.872 177.566C153.872 177.566 141.597 175.135 136.907 168.906L145.496 128.142L136.637 93.8829L140.806 66.3718Z" fill="#0027E1"/>
<path d="M11.7644 147.279L12.0087 59.5288C12.0156 57.7527 12.7296 56.052 13.9939 54.7996C15.2582 53.5472 16.9696 52.8455 18.7527 52.8484L85.2853 53.0321C87.0684 53.0391 88.7759 53.7502 90.0332 55.0096C91.2906 56.2689 91.995 57.9736 91.9921 59.7497L91.7478 147.5C91.7409 149.276 91.0269 150.977 89.7626 152.229C88.4983 153.482 86.7869 154.183 85.0038 154.18L18.4712 153.997C16.6881 153.99 14.9806 153.279 13.7233 152.019C12.466 150.76 11.7615 149.055 11.7644 147.279Z" fill="#E6E6E6"/>
<path d="M16.9416 120.789L17.0986 64.3751C17.1051 62.7117 17.7737 61.1189 18.9578 59.946C20.1419 58.7731 21.7447 58.1159 23.4146 58.1187L80.5938 58.2766C82.2637 58.283 83.8629 58.949 85.0405 60.1284C86.2181 61.3078 86.8779 62.9044 86.8752 64.5677L86.6579 142.654C86.6513 144.317 85.9826 145.91 84.7985 147.083C83.6143 148.256 82.0115 148.913 80.3415 148.91L44.9202 148.812C37.4818 148.783 30.3587 145.817 25.1135 140.563C19.8683 135.31 16.9294 128.198 16.9416 120.789Z" fill="white"/>
<path d="M74.0421 82.899H29.457C28.7475 82.899 28.0671 82.6183 27.5654 82.1186C27.0637 81.6189 26.7819 80.9411 26.7819 80.2344C26.7819 79.5277 27.0637 78.85 27.5654 78.3503C28.0671 77.8506 28.7475 77.5698 29.457 77.5698H74.0421C74.7515 77.5698 75.432 77.8506 75.9336 78.3503C76.4353 78.85 76.7172 79.5277 76.7172 80.2344C76.7172 80.9411 76.4353 81.6189 75.9336 82.1186C75.432 82.6183 74.7515 82.899 74.0421 82.899Z" fill="#6C63FF"/>
<path d="M39.2657 70.6124H29.457C28.7475 70.6124 28.0671 70.3316 27.5654 69.8319C27.0637 69.3322 26.7819 68.6545 26.7819 67.9478C26.7819 67.2411 27.0637 66.5634 27.5654 66.0636C28.0671 65.5639 28.7475 65.2832 29.457 65.2832H39.2657C39.9752 65.2832 40.6556 65.5639 41.1573 66.0636C41.6589 66.5634 41.9408 67.2411 41.9408 67.9478C41.9408 68.6545 41.6589 69.3322 41.1573 69.8319C40.6556 70.3316 39.9752 70.6124 39.2657 70.6124Z" fill="#6C63FF"/>
<path d="M74.0421 95.1856H29.457C28.7475 95.1856 28.0671 94.9049 27.5654 94.4052C27.0637 93.9055 26.7819 93.2277 26.7819 92.521C26.7819 91.8143 27.0637 91.1366 27.5654 90.6369C28.0671 90.1372 28.7475 89.8564 29.457 89.8564H74.0421C74.7515 89.8564 75.432 90.1372 75.9336 90.6369C76.4353 91.1366 76.7172 91.8143 76.7172 92.521C76.7172 93.2277 76.4353 93.9055 75.9336 94.4052C75.432 94.9049 74.7515 95.1856 74.0421 95.1856Z" fill="#6C63FF"/>
<path d="M74.0421 107.472H29.457C28.7475 107.472 28.0671 107.192 27.5654 106.692C27.0637 106.192 26.7819 105.515 26.7819 104.808C26.7819 104.101 27.0637 103.423 27.5654 102.924C28.0671 102.424 28.7475 102.143 29.457 102.143H74.0421C74.7515 102.143 75.432 102.424 75.9336 102.924C76.4353 103.423 76.7172 104.101 76.7172 104.808C76.7172 105.515 76.4353 106.192 75.9336 106.692C75.432 107.192 74.7515 107.472 74.0421 107.472Z" fill="#6C63FF"/>
<path d="M70.4345 139.847C76.3132 139.847 81.0788 135.1 81.0788 129.245C81.0788 123.389 76.3132 118.643 70.4345 118.643C64.5559 118.643 59.7903 123.389 59.7903 129.245C59.7903 135.1 64.5559 139.847 70.4345 139.847Z" fill="#28AF61"/>
<path d="M68.9824 134.763C68.7986 134.763 68.6173 134.72 68.4529 134.638C68.2885 134.557 68.1455 134.438 68.0352 134.291L65.1313 130.434C65.0378 130.311 64.9697 130.17 64.931 130.019C64.8922 129.869 64.8836 129.713 64.9055 129.56C64.9274 129.406 64.9795 129.258 65.0587 129.125C65.138 128.992 65.2428 128.875 65.3673 128.782C65.4918 128.689 65.6335 128.622 65.7842 128.583C65.935 128.545 66.0919 128.536 66.2459 128.558C66.3999 128.58 66.5481 128.632 66.6819 128.711C66.8157 128.791 66.9326 128.895 67.0258 129.019L68.9256 131.542L73.8051 124.252C73.8911 124.122 74.0019 124.011 74.1312 123.925C74.2604 123.838 74.4056 123.778 74.5583 123.747C74.711 123.716 74.8684 123.716 75.0212 123.746C75.1741 123.776 75.3195 123.836 75.4491 123.922C75.5788 124.008 75.6901 124.119 75.7767 124.248C75.8632 124.377 75.9234 124.521 75.9538 124.674C75.9841 124.826 75.9839 124.982 75.9533 125.135C75.9227 125.287 75.8623 125.431 75.7755 125.56L69.9676 134.238C69.8626 134.395 69.7213 134.524 69.5556 134.616C69.3899 134.707 69.2046 134.757 69.0153 134.763C69.0043 134.763 68.9933 134.763 68.9824 134.763Z" fill="white"/>
<path d="M47.7368 32.42C50.5275 32.42 52.7898 30.1666 52.7898 27.3869C52.7898 24.6072 50.5275 22.3538 47.7368 22.3538C44.9461 22.3538 42.6838 24.6072 42.6838 27.3869C42.6838 30.1666 44.9461 32.42 47.7368 32.42Z" fill="#F2F2F2"/>
<path d="M29.3083 177.196C32.099 177.196 34.3613 174.942 34.3613 172.162C34.3613 169.383 32.099 167.129 29.3083 167.129C26.5177 167.129 24.2554 169.383 24.2554 172.162C24.2554 174.942 26.5177 177.196 29.3083 177.196Z" fill="#F2F2F2"/>
<path d="M145.527 51.9602C148.318 51.9602 150.58 49.7069 150.58 46.9271C150.58 44.1474 148.318 41.894 145.527 41.894C142.736 41.894 140.474 44.1474 140.474 46.9271C140.474 49.7069 142.736 51.9602 145.527 51.9602Z" fill="#F2F2F2"/>
</g>
<defs>
<clipPath id="clip0_758_4497">
<rect width="170" height="204" fill="white"/>
</clipPath>
</defs>
</svg>
