<svg width="967" height="582" viewBox="0 0 967 582" fill="none" xmlns="http://www.w3.org/2000/svg">
<g clip-path="url(#clip0_624_3)">
<path d="M740.358 575.419C727.978 564.887 720.458 548.251 722.43 532.056C724.402 515.86 736.617 500.972 752.461 497.533C768.305 494.094 786.366 503.614 791.178 519.195C793.827 489.155 796.879 457.857 812.743 432.276C827.108 409.113 851.989 392.539 878.954 389.574C905.918 386.609 934.309 397.807 951.126 419.233C967.943 440.658 972.06 471.807 960.282 496.405C951.606 514.525 935.62 528.011 918.872 538.982C864.751 574.135 799.84 588.431 736.082 579.238L740.358 575.419Z" fill="#28AF61"/>
<path d="M924.461 398.428C902.212 416.672 881.8 437.076 863.522 459.345C834.916 494.078 811.769 533.019 794.885 574.813C793.649 577.861 798.567 579.189 799.789 576.174C827.414 508.25 871.514 448.383 928.057 402.048C930.596 399.967 926.979 396.364 924.461 398.428Z" fill="#3C462B"/>
<path d="M311.293 572.557C328.297 558.093 338.626 535.243 335.917 512.998C333.208 490.754 316.432 470.305 294.67 465.581C272.908 460.857 248.101 473.933 241.491 495.334C237.854 454.075 233.662 411.087 211.872 375.951C192.141 344.136 157.968 321.372 120.932 317.299C83.8957 313.227 44.9013 328.608 21.8031 358.036C-1.295 387.464 -6.95048 430.246 9.22685 464.032C21.1441 488.92 43.1 507.443 66.1042 522.512C139.496 570.587 230.538 590.637 317.166 577.803" fill="#28AF61"/>
<path d="M58.4276 329.461C88.987 354.519 117.022 382.544 142.127 413.131C167.237 443.686 189.342 476.622 208.135 511.474C218.639 531.025 228.075 551.139 236.4 571.725C238.098 575.913 231.343 577.735 229.664 573.594C214.917 537.301 196.672 502.55 175.191 469.839C153.814 437.247 129.347 406.819 102.134 378.984C86.7421 363.247 70.5022 348.375 53.4881 334.433C50.0007 331.575 54.969 326.626 58.4276 329.461Z" fill="#3C462B"/>
<path d="M694.128 580.726H288.433V161.686C288.433 72.5318 360.482 0 449.043 0H533.518C622.079 0 694.128 72.5318 694.128 161.686V580.726Z" fill="#FFFFFE"/>
<path d="M609.655 580.726H288.433V161.686C288.344 127.524 299.09 94.2255 319.105 66.6387C319.843 65.6263 320.579 64.627 321.338 63.6386C331.019 50.856 342.54 39.5986 355.521 30.2379C356.254 29.7008 356.99 29.173 357.737 28.6452C368.599 21.0784 380.349 14.8926 392.719 10.2287C393.453 9.94846 394.201 9.66762 394.949 9.39826C406.136 5.37914 417.733 2.62606 429.526 1.18986C430.257 1.08933 431.007 1.01065 431.758 0.931982C443.25 -0.304964 454.84 -0.304964 466.331 0.931982C467.08 1.01065 467.83 1.08932 468.57 1.19094C480.36 2.62723 491.954 5.37998 503.138 9.39832C503.886 9.66768 504.634 9.94849 505.371 10.2293C517.588 14.8344 529.199 20.9278 539.945 28.3737C540.692 28.89 541.439 29.4178 542.176 29.9456C549.451 35.1741 556.286 40.9989 562.609 47.3607C567.679 52.4635 572.404 57.9028 576.752 63.642C577.508 64.6271 578.244 65.6264 578.981 66.6371C598.997 94.2242 609.743 127.523 609.655 161.686V580.726Z" fill="#F7C62F"/>
<path d="M583.534 393.305C593.356 393.305 601.318 385.289 601.318 375.402C601.318 365.514 593.356 357.499 583.534 357.499C573.713 357.499 565.75 365.514 565.75 375.402C565.75 385.289 573.713 393.305 583.534 393.305Z" fill="#9F5A05"/>
<path d="M660.893 568.175H647.267L640.783 515.263L660.896 515.264L660.893 568.175Z" fill="#FFB8B8"/>
<path d="M637.533 564.255H663.813V580.913H620.986C620.986 578.725 621.414 576.559 622.246 574.538C623.077 572.517 624.296 570.681 625.833 569.134C627.369 567.587 629.193 566.36 631.201 565.523C633.208 564.686 635.36 564.255 637.533 564.255Z" fill="#2F2E41"/>
<path d="M728.695 568.175H715.068L708.584 515.263L728.697 515.264L728.695 568.175Z" fill="#FFB8B8"/>
<path d="M705.334 564.255H731.614V580.913H688.787C688.787 578.725 689.215 576.559 690.047 574.538C690.878 572.517 692.097 570.681 693.634 569.134C695.17 567.587 696.994 566.36 699.002 565.523C701.009 564.686 703.161 564.255 705.334 564.255Z" fill="#2F2E41"/>
<path d="M592.535 378.948C591.555 377.494 590.903 375.842 590.626 374.107C590.348 372.372 590.452 370.597 590.93 368.907C591.408 367.216 592.249 365.652 593.392 364.325C594.535 362.997 595.954 361.937 597.548 361.221L643.871 232.693L666.664 245.216L613.774 368.042C614.792 370.817 614.763 373.872 613.692 376.628C612.622 379.383 610.585 381.647 607.967 382.992C605.349 384.336 602.332 384.667 599.488 383.922C596.643 383.177 594.17 381.407 592.535 378.948Z" fill="#FFB8B8"/>
<path d="M721.734 403.1C720.219 402.225 718.914 401.028 717.909 399.591C716.904 398.154 716.225 396.513 715.918 394.783C715.611 393.053 715.685 391.276 716.135 389.578C716.584 387.88 717.397 386.302 718.518 384.954L704.168 248.993L730.108 250.186L736.072 383.922C738.195 385.967 739.5 388.726 739.738 391.675C739.976 394.623 739.132 397.558 737.364 399.922C735.597 402.286 733.03 403.915 730.149 404.5C727.268 405.086 724.274 404.588 721.734 403.1Z" fill="#FFB8B8"/>
<path d="M680.352 208.886C695.429 208.886 707.652 196.582 707.652 181.404C707.652 166.226 695.429 153.922 680.352 153.922C665.275 153.922 653.053 166.226 653.053 181.404C653.053 196.582 665.275 208.886 680.352 208.886Z" fill="#FFB8B8"/>
<path d="M721.56 372.178H639.257L639.356 371.533C639.504 370.569 654.024 274.814 643.315 243.487C642.24 240.409 642.335 237.039 643.58 234.026C644.826 231.013 647.134 228.571 650.061 227.169C665.368 219.912 694.752 210.977 719.552 232.662C723.201 235.906 726.051 239.96 727.876 244.503C729.701 249.047 730.45 253.955 730.066 258.841L721.56 372.178Z" fill="#0027E1"/>
<path d="M655.064 288.965L618.01 281.397L635.379 239.963C636.418 235.95 638.996 232.516 642.548 230.414C646.099 228.312 650.333 227.714 654.322 228.75C658.311 229.787 661.729 232.374 663.826 235.944C665.922 239.514 666.527 243.775 665.507 247.793L655.064 288.965Z" fill="#0027E1"/>
<path d="M702.521 303.016L700.293 251.611C698.604 241.947 704.099 232.812 712.55 231.319C721.003 229.831 729.257 236.534 730.954 246.268L739.327 294.301L702.521 303.016Z" fill="#0027E1"/>
<path d="M718.821 366.024C732.064 416.797 733.509 481.351 729.936 551.766L712.152 549.529L679.919 415.257L662.135 551.766L642.128 550.648C636.151 476.765 630.332 413.337 639.905 371.618L718.821 366.024Z" fill="#2F2E41"/>
<path d="M698.34 202.643C693.247 208.105 683.789 205.173 683.125 197.712C683.073 197.133 683.077 196.55 683.137 195.971C683.479 192.666 685.376 189.666 684.921 186.177C684.819 185.308 684.497 184.48 683.988 183.772C679.929 178.301 670.403 186.219 666.573 181.266C664.224 178.23 666.985 173.448 665.183 170.054C662.804 165.574 655.758 167.784 651.34 165.331C646.424 162.601 646.718 155.009 649.954 150.39C653.901 144.758 660.82 141.753 667.653 141.319C674.486 140.886 681.272 142.746 687.651 145.249C694.899 148.092 702.087 152.022 706.547 158.438C711.972 166.24 712.494 176.73 709.781 185.854C708.131 191.404 702.499 198.184 698.34 202.643Z" fill="#2F2E41"/>
<path d="M933.635 581.446H113.025C112.675 581.445 112.339 581.304 112.092 581.054C111.844 580.805 111.706 580.466 111.706 580.114C111.706 579.761 111.844 579.423 112.092 579.173C112.339 578.923 112.675 578.782 113.025 578.781H933.635C933.985 578.782 934.321 578.923 934.568 579.173C934.815 579.423 934.954 579.761 934.954 580.114C934.954 580.466 934.815 580.805 934.568 581.054C934.321 581.304 933.985 581.445 933.635 581.446Z" fill="#3F3D56"/>
<path d="M521.291 459.322H376.796C374.894 459.332 373.064 458.582 371.71 457.237C370.355 455.891 369.586 454.059 369.572 452.144V127.464C369.586 125.548 370.355 123.716 371.71 122.371C373.064 121.025 374.894 120.275 376.796 120.285H521.291C523.194 120.275 525.023 121.025 526.377 122.371C527.732 123.716 528.501 125.548 528.515 127.464V452.144C528.501 454.059 527.732 455.891 526.377 457.237C525.023 458.582 523.194 459.332 521.291 459.322Z" fill="#FFFFFE"/>
<path d="M528.515 225.341H369.572V227.579H528.515V225.341Z" fill="#3C462B"/>
<path d="M529.071 353.023H370.127V355.261H529.071V353.023Z" fill="#232946"/>
<path d="M421.812 120.285H419.589V460.441H421.812V120.285Z" fill="#3C462B"/>
<path d="M477.387 120.285H475.164V460.441H477.387V120.285Z" fill="#3C462B"/>
</g>
<defs>
<clipPath id="clip0_624_3">
<rect width="967" height="582" fill="white"/>
</clipPath>
</defs>
</svg>
