<svg width="246" height="207" viewBox="0 0 246 207" fill="none" xmlns="http://www.w3.org/2000/svg">
<g clip-path="url(#clip0_501_53)">
<path d="M125.832 120.633L72.208 121.516C71.3615 121.531 70.5201 121.391 69.7319 121.101C68.9437 120.812 68.2241 120.381 67.6144 119.831C67.0047 119.281 66.5168 118.624 66.1787 117.898C65.8406 117.171 65.6589 116.389 65.6441 115.597C65.6292 114.805 65.7814 114.017 66.092 113.28C66.4026 112.543 66.8655 111.87 67.4542 111.301C68.0428 110.731 68.7457 110.276 69.5226 109.961C70.2995 109.646 71.1351 109.478 71.9816 109.466L125.606 108.583C126.405 108.57 127.178 108.855 127.753 109.375C128.328 109.894 128.659 110.607 128.673 111.355L128.794 117.762C128.807 118.478 128.529 119.171 128.017 119.703C127.505 120.234 126.796 120.563 126.034 120.623C125.967 120.629 125.9 120.632 125.832 120.633Z" fill="#FFB8B8"/>
<path d="M115.476 122.27L71.4819 124.15C71.0864 124.167 70.6912 124.111 70.3189 123.985C69.9466 123.859 69.6045 123.666 69.312 123.416C69.0196 123.166 68.7826 122.865 68.6146 122.529C68.4465 122.194 68.3508 121.83 68.3327 121.46L67.8672 111.913C67.8307 111.165 68.113 110.435 68.652 109.882C69.1911 109.329 69.9426 109 70.7413 108.965L114.736 107.085C115.131 107.069 115.526 107.125 115.899 107.251C116.271 107.377 116.613 107.57 116.905 107.82C117.198 108.07 117.435 108.371 117.603 108.707C117.771 109.042 117.867 109.405 117.885 109.776L118.35 119.323C118.385 120.052 118.117 120.765 117.602 121.313C117.088 121.861 116.367 122.202 115.59 122.264C115.552 122.267 115.514 122.269 115.476 122.27Z" fill="#0027E1"/>
<path d="M41.0785 204.178V150.772C41.0794 150.024 41.3973 149.307 41.9625 148.778C42.5277 148.249 43.294 147.951 44.0933 147.95H50.939C51.7383 147.951 52.5046 148.249 53.0698 148.778C53.635 149.307 53.9529 150.024 53.9538 150.772V204.178C53.9529 204.926 53.635 205.644 53.0698 206.173C52.5046 206.702 51.7383 206.999 50.939 207H44.0933C43.294 206.999 42.5277 206.702 41.9625 206.173C41.3973 205.644 41.0794 204.926 41.0785 204.178Z" fill="#FFB8B8"/>
<path d="M59.0431 204.178V150.772C59.044 150.024 59.3619 149.307 59.9271 148.778C60.4923 148.249 61.2586 147.951 62.0579 147.95H68.9036C69.7029 147.951 70.4692 148.249 71.0344 148.778C71.5996 149.307 71.9175 150.024 71.9184 150.772V204.178C71.9175 204.926 71.5996 205.644 71.0344 206.173C70.4692 206.702 69.7029 206.999 68.9036 207H62.0579C61.2586 206.999 60.4923 206.702 59.9271 206.173C59.3619 205.644 59.044 204.926 59.0431 204.178Z" fill="#FFB8B8"/>
<path d="M60.831 92.2152C73.895 92.2152 84.4854 82.3021 84.4854 70.0738C84.4854 57.8454 73.895 47.9324 60.831 47.9324C47.7671 47.9324 37.1766 57.8454 37.1766 70.0738C37.1766 82.3021 47.7671 92.2152 60.831 92.2152Z" fill="#FFB8B8"/>
<path d="M73.635 77.6337C74.3959 77.3997 75.0944 77.0159 75.6836 76.5081C76.074 76.1456 76.3749 75.7075 76.5654 75.2246C76.7559 74.7417 76.8313 74.2257 76.7863 73.7127C76.7615 73.3471 76.6468 72.9919 76.4511 72.6748C76.2554 72.3576 75.984 72.0871 75.6581 71.8844C74.8122 71.3765 73.6808 71.375 72.5289 71.8502L72.5725 63.2065L71.6449 63.2024L71.5936 73.364L72.3084 72.9431C73.1371 72.456 74.3208 72.113 75.1571 72.6153C75.3638 72.748 75.535 72.9236 75.6574 73.1283C75.7798 73.333 75.8501 73.5614 75.8628 73.7957C75.8941 74.1779 75.8371 74.5618 75.6956 74.9215C75.5541 75.2812 75.3315 75.6081 75.0429 75.88C74.0186 76.7959 72.5242 77.0823 70.8201 77.3382L70.9671 78.1954C71.8725 78.0832 72.7654 77.8952 73.635 77.6337Z" fill="#2F2E41"/>
<path d="M82.1347 62.7698L77.1816 63.3821L77.3031 64.2428L82.2561 63.6305L82.1347 62.7698Z" fill="#2F2E41"/>
<path d="M66.5008 64.7019L61.5477 65.3142L61.6692 66.1749L66.6222 65.5626L66.5008 64.7019Z" fill="#2F2E41"/>
<path d="M10.6468 68.3255L44.6089 107.18C45.1446 107.792 45.5463 108.497 45.7908 109.255C46.0353 110.013 46.118 110.808 46.034 111.596C45.9501 112.383 45.7012 113.148 45.3015 113.845C44.9019 114.543 44.3593 115.16 43.7048 115.661C43.0504 116.162 42.2968 116.538 41.4872 116.767C40.6776 116.995 39.8279 117.072 38.9865 116.993C38.1451 116.914 37.3285 116.681 36.5835 116.307C35.8384 115.932 35.1795 115.424 34.6443 114.811L0.681968 75.9571C0.431236 75.6703 0.243306 75.3401 0.128923 74.9853C0.0145401 74.6305 -0.024065 74.2581 0.0153179 73.8894C0.0547008 73.5206 0.171294 73.1627 0.358446 72.8362C0.545598 72.5096 0.79964 72.2208 1.10606 71.9861L6.40427 67.9283C7.02314 67.4544 7.81778 67.2301 8.61338 67.3045C9.40898 67.379 10.1404 67.7463 10.6468 68.3255Z" fill="#FFB8B8"/>
<path d="M21.9735 76.9973L49.8613 108.902C50.1121 109.189 50.3 109.519 50.4144 109.874C50.5288 110.229 50.5674 110.601 50.528 110.97C50.4886 111.339 50.372 111.697 50.1849 112.023C49.9977 112.35 49.7437 112.639 49.4372 112.873L40.3876 119.804C40.0812 120.039 39.7284 120.215 39.3494 120.322C38.9704 120.429 38.5725 120.465 38.1786 120.428C37.7846 120.391 37.4023 120.282 37.0534 120.107C36.7045 119.931 36.3959 119.694 36.1453 119.407L8.25725 87.502C7.75182 86.9225 7.51262 86.1789 7.59213 85.4345C7.67164 84.69 8.06336 84.0055 8.68136 83.5311L17.7311 76.6002C18.3499 76.1263 19.1445 75.9019 19.9401 75.9764C20.7357 76.0509 21.4671 76.4181 21.9735 76.9973Z" fill="#0027E1"/>
<path d="M215.322 38.2107C214.981 37.4528 214.41 36.8051 213.68 36.3477C212.95 35.8904 212.093 35.6436 211.214 35.6377H129.207C128.028 35.6383 126.897 36.0769 126.064 36.8571C125.23 37.6373 124.762 38.6954 124.761 39.7988V136.91C124.762 138.013 125.23 139.071 126.064 139.852C126.897 140.632 128.028 141.07 129.207 141.071H211.217C212.395 141.069 213.525 140.631 214.359 139.851C215.192 139.071 215.661 138.013 215.662 136.91V39.7988C215.664 39.2537 215.55 38.7137 215.325 38.2107H215.322ZM214.672 136.91C214.671 137.768 214.306 138.591 213.658 139.198C213.01 139.804 212.131 140.146 211.214 140.147H129.207C128.29 140.147 127.41 139.806 126.762 139.199C126.113 138.592 125.749 137.769 125.748 136.91V39.7994C125.75 38.9412 126.114 38.1185 126.763 37.5117C127.411 36.9049 128.29 36.5635 129.207 36.5623H211.217C211.908 36.5648 212.582 36.7598 213.153 37.1225C213.725 37.4851 214.168 37.9991 214.427 38.5986C214.477 38.7181 214.521 38.84 214.557 38.9638C214.635 39.2362 214.675 39.5172 214.675 39.7994L214.672 136.91Z" fill="#3F3D56"/>
<path d="M198.209 58.5651H173.507C173.247 58.5655 172.99 58.5179 172.75 58.4251C172.51 58.3323 172.291 58.1961 172.107 58.0243C171.924 57.8525 171.778 57.6485 171.678 57.4238C171.579 57.1992 171.528 56.9585 171.528 56.7153C171.528 56.4721 171.579 56.2314 171.678 56.0067C171.778 55.7821 171.924 55.5781 172.107 55.4063C172.291 55.2344 172.51 55.0983 172.75 55.0055C172.99 54.9127 173.247 54.8651 173.507 54.8655H198.209C198.468 54.8651 198.726 54.9127 198.966 55.0055C199.206 55.0983 199.424 55.2344 199.608 55.4063C199.792 55.5781 199.938 55.7821 200.037 56.0067C200.137 56.2314 200.188 56.4721 200.188 56.7153C200.188 56.9585 200.137 57.1992 200.037 57.4238C199.938 57.6485 199.792 57.8525 199.608 58.0243C199.424 58.1961 199.206 58.3323 198.966 58.4251C198.726 58.5179 198.468 58.5655 198.209 58.5651Z" fill="#3F3D56"/>
<path d="M198.209 68.2763H173.507C173.247 68.2767 172.99 68.2291 172.75 68.1363C172.51 68.0435 172.291 67.9073 172.107 67.7355C171.924 67.5637 171.778 67.3597 171.678 67.135C171.579 66.9104 171.528 66.6696 171.528 66.4265C171.528 66.1833 171.579 65.9425 171.678 65.7179C171.778 65.4933 171.924 65.2893 172.107 65.1174C172.291 64.9456 172.51 64.8094 172.75 64.7166C172.99 64.6238 173.247 64.5763 173.507 64.5767H198.209C198.468 64.5763 198.726 64.6238 198.966 64.7166C199.206 64.8094 199.424 64.9456 199.608 65.1174C199.792 65.2893 199.938 65.4933 200.037 65.7179C200.137 65.9425 200.188 66.1833 200.188 66.4265C200.188 66.6696 200.137 66.9104 200.037 67.135C199.938 67.3597 199.792 67.5637 199.608 67.7355C199.424 67.9073 199.206 68.0435 198.966 68.1363C198.726 68.2291 198.468 68.2767 198.209 68.2763Z" fill="#3F3D56"/>
<path d="M160.833 73.8057H142.781C142.191 73.8051 141.626 73.5857 141.209 73.1955C140.792 72.8054 140.558 72.2764 140.557 71.7246V51.7845C140.558 51.2327 140.792 50.7037 141.209 50.3136C141.626 49.9234 142.191 49.704 142.781 49.7034H160.833C161.422 49.704 161.987 49.9234 162.404 50.3136C162.821 50.7037 163.055 51.2327 163.056 51.7845V71.7246C163.055 72.2764 162.821 72.8054 162.404 73.1955C161.987 73.5857 161.422 73.8051 160.833 73.8057Z" fill="#F7C62F"/>
<path d="M198.037 88.1611H142.211C141.687 88.1611 141.185 87.9662 140.814 87.6193C140.443 87.2723 140.235 86.8018 140.235 86.3112C140.235 85.8206 140.443 85.3501 140.814 85.0032C141.185 84.6563 141.687 84.4614 142.211 84.4614H198.037C198.561 84.4614 199.064 84.6563 199.435 85.0032C199.805 85.3501 200.013 85.8206 200.013 86.3112C200.013 86.8018 199.805 87.2723 199.435 87.6193C199.064 87.9662 198.561 88.1611 198.037 88.1611Z" fill="#CCCCCC"/>
<path d="M198.037 97.8722H142.211C141.688 97.8715 141.186 97.6763 140.816 97.3294C140.446 96.9826 140.238 96.5125 140.238 96.0224C140.238 95.5323 140.446 95.0623 140.816 94.7154C141.186 94.3686 141.688 94.1734 142.211 94.1726H198.037C198.297 94.1722 198.554 94.2198 198.794 94.3126C199.034 94.4054 199.253 94.5416 199.436 94.7134C199.62 94.8852 199.766 95.0893 199.866 95.3139C199.965 95.5385 200.016 95.7793 200.016 96.0224C200.016 96.2656 199.965 96.5064 199.866 96.731C199.766 96.9556 199.62 97.1596 199.436 97.3315C199.253 97.5033 199.034 97.6395 198.794 97.7323C198.554 97.825 198.297 97.8726 198.037 97.8722Z" fill="#CCCCCC"/>
<path d="M198.037 107.583H142.211C141.688 107.583 141.186 107.387 140.816 107.041C140.446 106.694 140.238 106.224 140.238 105.734C140.238 105.243 140.446 104.773 140.816 104.427C141.186 104.08 141.688 103.885 142.211 103.884H198.037C198.297 103.883 198.554 103.931 198.794 104.024C199.034 104.117 199.253 104.253 199.436 104.425C199.62 104.596 199.766 104.8 199.866 105.025C199.965 105.25 200.016 105.49 200.016 105.734C200.016 105.977 199.965 106.218 199.866 106.442C199.766 106.667 199.62 106.871 199.436 107.043C199.253 107.214 199.034 107.351 198.794 107.443C198.554 107.536 198.297 107.584 198.037 107.583Z" fill="#CCCCCC"/>
<path d="M198.037 117.294H142.211C141.688 117.294 141.186 117.098 140.816 116.752C140.446 116.405 140.238 115.935 140.238 115.445C140.238 114.954 140.446 114.484 140.816 114.138C141.186 113.791 141.688 113.595 142.211 113.595H198.037C198.297 113.594 198.554 113.642 198.794 113.735C199.034 113.828 199.253 113.964 199.436 114.136C199.62 114.307 199.766 114.511 199.866 114.736C199.965 114.961 200.016 115.201 200.016 115.445C200.016 115.688 199.965 115.928 199.866 116.153C199.766 116.378 199.62 116.582 199.436 116.754C199.253 116.925 199.034 117.062 198.794 117.154C198.554 117.247 198.297 117.295 198.037 117.294Z" fill="#CCCCCC"/>
<path d="M198.037 127.006H142.211C141.688 127.005 141.186 126.81 140.816 126.463C140.446 126.116 140.238 125.646 140.238 125.156C140.238 124.666 140.446 124.196 140.816 123.849C141.186 123.502 141.688 123.307 142.211 123.306H198.037C198.297 123.306 198.554 123.353 198.794 123.446C199.034 123.539 199.253 123.675 199.436 123.847C199.62 124.018 199.766 124.223 199.866 124.447C199.965 124.672 200.016 124.913 200.016 125.156C200.016 125.399 199.965 125.64 199.866 125.864C199.766 126.089 199.62 126.293 199.436 126.465C199.253 126.637 199.034 126.773 198.794 126.866C198.554 126.958 198.297 127.006 198.037 127.006Z" fill="#CCCCCC"/>
<path d="M217.709 52.963C233.334 52.963 246 41.1068 246 26.4815C246 11.8562 233.334 0 217.709 0C202.084 0 189.418 11.8562 189.418 26.4815C189.418 41.1068 202.084 52.963 217.709 52.963Z" fill="#F7C62F"/>
<path d="M217.161 44.7092C219 44.7092 220.49 43.3141 220.49 41.5933C220.49 39.8724 219 38.4773 217.161 38.4773C215.323 38.4773 213.832 39.8724 213.832 41.5933C213.832 43.3141 215.323 44.7092 217.161 44.7092Z" fill="white"/>
<path d="M216.805 9.0791C214.295 9.1024 211.894 10.0415 210.113 11.6964C208.332 13.3514 207.312 15.5916 207.268 17.9404C207.268 17.9853 207.267 18.3014 207.267 18.7149C207.267 19.3211 207.525 19.9025 207.983 20.3312C208.441 20.7599 209.062 21.0007 209.709 21.0008C210.357 21.0007 210.979 20.7595 211.437 20.3305C211.895 19.9014 212.153 19.3195 212.152 18.7129V18.7114C212.152 18.4301 212.152 18.2355 212.152 18.2235C212.152 17.471 212.361 16.7313 212.759 16.0773C213.157 15.4234 213.73 14.8776 214.421 14.4937C215.113 14.1099 215.899 13.9011 216.703 13.888C217.507 13.8749 218.3 14.0579 219.006 14.419C219.711 14.7801 220.304 15.3069 220.726 15.9475C221.148 16.5881 221.384 17.3205 221.412 18.0726C221.44 18.8247 221.258 19.5706 220.885 20.237C220.511 20.9034 219.959 21.4673 219.282 21.8732L219.283 21.8742C219.283 21.8742 215.807 23.9686 214.747 26.8418L214.748 26.842C214.562 27.4306 214.467 28.0413 214.468 28.6552C214.468 28.9076 214.484 31.1156 214.514 32.9077C214.525 33.526 214.795 34.1156 215.266 34.5493C215.737 34.983 216.371 35.226 217.032 35.2258C217.363 35.2258 217.69 35.1648 217.996 35.0464C218.301 34.9279 218.579 34.7543 218.813 34.5354C219.046 34.3165 219.232 34.0567 219.358 33.7707C219.485 33.4847 219.55 33.1782 219.55 32.8687L219.55 32.8543C219.539 31.213 219.533 29.302 219.533 29.1632C219.533 27.399 221.352 25.6412 222.845 24.4949C224.574 23.1843 225.789 21.3736 226.3 19.3469C226.41 18.9291 226.471 18.5013 226.481 18.0711C226.481 16.8902 226.232 15.7209 225.749 14.6299C225.267 13.5389 224.559 12.5476 223.667 11.7126C222.775 10.8776 221.716 10.2153 220.55 9.76335C219.385 9.31145 218.136 9.07886 216.874 9.07886C216.851 9.07886 216.828 9.07894 216.805 9.0791Z" fill="white"/>
<path d="M54.901 60.2774C59.1361 57.6712 64.4588 58.8436 69.1659 59.1841C73.4192 59.4917 78.4604 59.1886 81.4519 55.9359C84.5641 52.552 84.3041 47.5276 81.7274 43.9483C79.1911 40.4252 74.9811 38.2006 70.5272 37.6141C68.0595 37.2756 65.5435 37.4218 63.1394 38.0432C60.7354 38.6647 58.4958 39.7478 56.5633 41.2236L58.0771 41.8105C57.1949 33.9168 50.9944 26.7807 42.6754 24.8451C34.2583 22.8866 24.8454 26.2291 20.3547 33.254C15.9276 40.1794 16.4521 49.8431 22.8244 55.5983C25.8846 58.3622 30.0474 59.7702 34.272 59.0189C38.1681 58.3259 41.63 55.6674 42.3591 51.913C43.035 48.4328 41.5585 44.4797 37.9419 42.9598C36.9523 42.5278 35.8708 42.3118 34.779 42.3282C33.6872 42.3445 32.6137 42.5927 31.6393 43.054C30.7568 43.5188 30.0112 44.181 29.4691 44.9815C28.9269 45.782 28.6052 46.6958 28.5327 47.6412C28.4653 48.5564 28.6645 49.4716 29.109 50.2892C29.6111 51.2485 31.1411 50.4081 30.6403 49.4514C30.3169 48.748 30.225 47.9702 30.3763 47.2176C30.5277 46.465 30.9154 45.7718 31.4899 45.2266C32.8045 43.9411 34.8798 43.7276 36.6266 44.2532C39.823 45.2149 41.2343 48.6472 40.632 51.559C39.9573 54.8204 36.9828 56.9161 33.5959 57.4527C29.9126 58.0363 26.3208 56.5805 23.764 54.132C18.4094 49.0043 17.946 40.7455 21.5581 34.6256C25.2224 28.4171 33.0388 25.0834 40.484 26.1248C47.8461 27.1546 53.9093 32.5748 55.7985 39.2582C56.0369 40.0955 56.2057 40.9488 56.3036 41.8105C56.3097 41.9721 56.3652 42.1286 56.4637 42.2614C56.5621 42.3943 56.6993 42.4978 56.8588 42.5596C57.0184 42.6215 57.1936 42.6391 57.3636 42.6103C57.5335 42.5816 57.691 42.5077 57.8173 42.3974C64.1082 37.5069 74.5716 38.0314 79.7299 44.1838C82.2596 47.201 83.0051 51.8864 80.051 54.9172C77.2382 57.8031 72.567 57.806 68.7252 57.4899C63.8107 57.0856 58.4081 56.135 54.0059 58.844C53.0561 59.4284 53.9436 60.8665 54.901 60.2774Z" fill="#2F2E41"/>
<path d="M73.9751 169.396H38.506C37.8007 169.395 37.1245 169.133 36.6258 168.666C36.1271 168.199 35.8466 167.566 35.8458 166.906V155.839C35.8466 155.179 36.1271 154.546 36.6258 154.079C37.1245 153.612 37.8007 153.35 38.506 153.349H73.9751C74.6803 153.35 75.3565 153.612 75.8552 154.079C76.3539 154.546 76.6345 155.179 76.6352 155.839V166.906C76.6345 167.566 76.3539 168.199 75.8552 168.666C75.3565 169.133 74.6803 169.395 73.9751 169.396Z" fill="#2F2E41"/>
<path d="M75.187 114.834C74.0765 109.518 69.7635 105.308 64.1656 103.577C66.1871 102.968 67.4724 102.067 67.4724 101.059C67.4724 99.225 63.2377 97.7385 58.014 97.7385C52.7902 97.7385 48.5555 99.2249 48.5555 101.059C48.5555 102.082 49.8758 102.996 51.9486 103.605C43.3663 106 37.137 112.991 37.137 121.224C37.137 121.224 34.4952 137.076 32.421 149.748C31.094 157.855 38.3447 165.101 47.7809 165.101H80.9672C83.1411 165.101 84.9096 163.566 84.9096 161.68C84.9096 161.68 78.7945 132.102 75.187 114.834Z" fill="#0027E1"/>
</g>
<defs>
<clipPath id="clip0_501_53">
<rect width="246" height="207" fill="white"/>
</clipPath>
</defs>
</svg>
